<svg width="46" height="32" viewBox="0 0 46 32" fill="none" xmlns="http://www.w3.org/2000/svg">
<rect y="0.5" width="46" height="31" rx="15.5" fill="#CFCCC5"/>
<g clip-path="url(#clip0_1_486)">
<path d="M16 10C14.8133 10 13.6533 10.3519 12.6666 11.0112C11.6799 11.6705 10.9109 12.6075 10.4567 13.7039C10.0026 14.8003 9.88378 16.0067 10.1153 17.1705C10.3468 18.3344 10.9182 19.4035 11.7574 20.2426C12.5965 21.0818 13.6656 21.6532 14.8295 21.8847C15.9933 22.1162 17.1997 21.9974 18.2961 21.5433C19.3925 21.0892 20.3295 20.3201 20.9888 19.3334C21.6481 18.3467 22 17.1867 22 16C21.9954 14.4101 21.3617 12.8867 20.2375 11.7625C19.1133 10.6383 17.5899 10.0046 16 10V10ZM19 16.375H16.375V19H15.625V16.375H13V15.625H15.625V13H16.375V15.625H19V16.375Z" fill="#261F18"/>
</g>
<g clip-path="url(#clip1_1_486)">
<path d="M27.0938 11.8438H30.6562M22.3438 11.8438L22.9375 12.4375L24.7188 10.6562M27.0938 16H30.6562M22.3438 16L22.9375 16.5938L24.7188 14.8125M27.0938 20.1562H30.6562M22.3438 20.1562H23.5312M19.375 7.09375H33.625V24.9062H19.375V7.09375Z" stroke="#261F18" stroke-miterlimit="10" stroke-linecap="square"/>
</g>
<defs>
<clipPath id="clip0_1_486">
<rect width="12" height="12" fill="white" transform="translate(10 10)"/>
</clipPath>
<clipPath id="clip1_1_486">
<rect width="19" height="19" fill="white" transform="translate(17 6.5)"/>
</clipPath>
</defs>
</svg>
