<svg viewBox="0 0 18 16" fill="none" xmlns="http://www.w3.org/2000/svg" id="favorite">
<path d="M12.6412 1.91364e-05C11.8933 -0.00168853 11.1552 0.172571 10.4845 0.509181C9.81376 0.84579 9.22862 1.33563 8.77478 1.94043C8.32095 1.33563 7.73581 0.84579 7.06509 0.509181C6.39436 0.172571 5.65622 -0.00168853 4.90834 1.91364e-05C3.94956 -0.00248168 3.01116 0.281497 2.20959 0.816719C1.40802 1.35194 0.778549 2.11484 0.399296 3.01076C0.0200439 3.90668 -0.0922993 4.89618 0.0762068 5.85648C0.244713 6.81677 0.686651 7.70559 1.34718 8.41265L8.35311 15.8173C8.40768 15.8751 8.47316 15.921 8.54562 15.9524C8.61808 15.9838 8.69603 16 8.77478 16C8.85354 16 8.93149 15.9838 9.00395 15.9524C9.07641 15.921 9.14189 15.8751 9.19646 15.8173L16.2024 8.41265L16.2065 8.40789C16.866 7.70048 17.3069 6.81168 17.4745 5.8517C17.6422 4.89173 17.5292 3.9028 17.1495 3.00755C16.7699 2.1123 16.1404 1.35011 15.339 0.815483C14.5376 0.280858 13.5995 -0.00268311 12.6412 1.91364e-05Z" fill="currentColor"/>
<path d="M8.37486 2.24053L8.77478 2.77349L9.17471 2.24053C9.5825 1.6971 10.1077 1.25771 10.7088 0.956061C11.3098 0.654429 11.9707 0.498489 12.6401 0.500024L12.6426 0.500017C13.5012 0.497596 14.3422 0.751565 15.0615 1.23142C15.7809 1.71135 16.3473 2.39645 16.6892 3.20274C17.0311 4.00911 17.1331 4.90038 16.982 5.76569C16.8309 6.63096 16.4336 7.43099 15.8408 8.06694L15.8339 8.07427L15.831 8.07764L8.83326 15.4736L8.83299 15.4739C8.82462 15.4828 8.81506 15.4893 8.80515 15.4936C8.79527 15.4979 8.78497 15.5 8.77478 15.5C8.7646 15.5 8.7543 15.4979 8.74441 15.4936C8.73451 15.4893 8.72495 15.4828 8.71658 15.4739L8.7163 15.4736L1.71255 8.07132C1.71221 8.07095 1.71187 8.07059 1.71152 8.07022C1.11828 7.43476 0.72048 6.63514 0.568682 5.77006C0.416791 4.90445 0.518135 4.01266 0.859741 3.20567C1.20132 2.39876 1.76767 1.71301 2.48724 1.23254C3.20671 0.752142 4.04809 0.497777 4.90703 0.500023L4.90948 0.500018C5.57882 0.498489 6.23979 0.654429 6.84082 0.956061C7.44188 1.25771 7.96707 1.6971 8.37486 2.24053Z" stroke="currentColor"/>
</svg>


