<svg width="25" height="25" viewBox="0 0 25 25" fill="none" xmlns="http://www.w3.org/2000/svg">
<path fill-rule="evenodd" clip-rule="evenodd" d="M6.05685 13.4406L9.99362 23.1223C10.1229 23.4423 10.3737 23.6979 10.6912 23.8332C11.0084 23.9683 11.3663 23.9722 11.6864 23.8441C12.0059 23.715 12.2613 23.4645 12.3964 23.1474C12.5316 22.8302 12.5354 22.4724 12.407 22.1524C12.4069 22.1523 12.407 22.1525 12.407 22.1524L9.82909 15.7624L11.2782 15.1778L13.8569 21.5699C14.1397 22.2741 14.1314 23.0618 13.8339 23.76C13.5364 24.4582 12.9739 25.0097 12.2701 25.2935L11.9779 24.5689L12.2687 25.294C11.5645 25.5765 10.7769 25.5681 10.0788 25.2707C9.381 24.9735 8.82954 24.4117 8.54521 23.7086C8.54507 23.7083 8.54493 23.7079 8.54479 23.7076L4.60938 14.0292L6.05685 13.4406Z" fill="#261F18"/>
<path fill-rule="evenodd" clip-rule="evenodd" d="M17.5823 4.14783C16.8696 5.57327 16.4062 7.59716 16.4062 9.87537C16.4062 12.1536 16.8696 14.1775 17.5823 15.6029C18.3184 17.0751 19.1907 17.6882 19.922 17.6882C20.6532 17.6882 21.5256 17.0751 22.2617 15.6029C22.9744 14.1775 23.4377 12.1536 23.4377 9.87537C23.4377 7.59716 22.9744 5.57327 22.2617 4.14783C21.5256 2.67566 20.6532 2.06256 19.922 2.06256C19.1907 2.06256 18.3184 2.67566 17.5823 4.14783ZM16.1847 3.44903C17.0039 1.81075 18.28 0.5 19.922 0.5C21.5639 0.5 22.8401 1.81075 23.6592 3.44903C24.5018 5.13404 25.0003 7.40718 25.0003 9.87537C25.0003 12.3435 24.5018 14.6167 23.6592 16.3017C22.8401 17.94 21.5639 19.2507 19.922 19.2507C18.28 19.2507 17.0039 17.94 16.1847 16.3017C15.3422 14.6167 14.8437 12.3435 14.8437 9.87537C14.8437 7.40718 15.3422 5.13404 16.1847 3.44903Z" fill="#261F18"/>
<path fill-rule="evenodd" clip-rule="evenodd" d="M17.9688 6.75024H18.7501C19.5789 6.75024 20.3738 7.0795 20.9599 7.66557C21.5459 8.25165 21.8752 9.04653 21.8752 9.87537C21.8752 10.7042 21.5459 11.4991 20.9599 12.0852C20.3738 12.6712 19.5789 13.0005 18.7501 13.0005H17.9688V11.4379H18.7501C19.1645 11.4379 19.5619 11.2733 19.855 10.9803C20.148 10.6872 20.3126 10.2898 20.3126 9.87537C20.3126 9.46095 20.148 9.0635 19.855 8.77047C19.5619 8.47743 19.1645 8.31281 18.7501 8.31281H17.9688V6.75024Z" fill="#261F18"/>
<path fill-rule="evenodd" clip-rule="evenodd" d="M2.90576 5.99962L18.8254 0.707886L19.3183 2.19067L3.3413 7.50147L3.31111 7.5089C2.79486 7.63598 2.3385 7.93781 2.01951 8.36313C1.70052 8.78846 1.53854 9.31107 1.56109 9.84225L1.5625 9.87539L1.56109 9.90853C1.53854 10.4397 1.70052 10.9623 2.01951 11.3876C2.3385 11.813 2.79486 12.1148 3.31111 12.2419L3.3413 12.2493L19.3183 17.5601L18.8254 19.0429L2.90575 13.7512C2.05224 13.5334 1.29837 13.0304 0.769461 12.3252C0.240614 11.6201 -0.0311359 10.7556 -0.00132432 9.87539C-0.0311359 8.99515 0.240614 8.13073 0.769461 7.4256C1.29837 6.72038 2.05225 6.21742 2.90576 5.99962Z" fill="#261F18"/>
</svg>